<?xml version="1.0" encoding="utf-8"?>
<!-- Generator: Adobe Illustrator 20.1.0, SVG Export Plug-In . SVG Version: 6.00 Build 0)  -->
<svg version="1.1" id="Слой_1" xmlns="http://www.w3.org/2000/svg" xmlns:xlink="http://www.w3.org/1999/xlink" x="0px" y="0px"
	 viewBox="0 0 1256.2 755.7" style="enable-background:new 0 0 1256.2 755.7;" xml:space="preserve">
<style type="text/css">
	.st0{fill:#343A40;}
	.st1{fill:#FFFFFF;}
	.st2{fill:#2E2633;}
	.st3{fill:#433749;}
	.st4{fill:#534459;}
	.st5{fill:#615068;}
	.st6{fill:#F47373;}
	.st7{fill:#3A2F3F;}
	.st8{fill:#DB3E3E;}
	.st9{fill:#F94B4B;}
	.st10{fill:#EAD9B9;}
	.st11{fill:#FFB882;}
	.st12{fill:#FF9566;}
	.st13{fill:#CEBA8D;}
	.st14{fill:#BCA577;}
	.st15{fill:#6978A8;}
	.st16{fill:#516491;}
	.st17{fill:#773838;}
	.st18{fill:#562626;}
	.st19{opacity:0.6;}
	.st20{fill:#843131;}
	.st21{fill:#492D28;}
	.st22{fill:#EA7B59;}
	.st23{fill:#AF5145;}
	.st24{fill:#FFF7D4;}
	.st25{fill:#FFC648;}
	.st26{fill:#BE72D6;}
	.st27{fill:#9B4FB7;}
	.st28{fill:#779AD8;}
	.st29{fill:#EFCBF4;}
	.st30{fill:#9ECBCC;}
	.st31{fill:#FFD86C;}
	.st32{fill:#E8872E;}
	.st33{fill:#EFC150;}
	.st34{fill:#E2AAE8;}
	.st35{fill:#5580BF;}
	.st36{fill:#41608C;}
	.st37{fill:#FFF2BB;}
	.st38{fill:#EFD79A;}
	.st39{fill:#DD2F2F;}
	.st40{fill:#E22D2D;}
	.st41{fill:#603F3A;}
	.st42{fill:#FFD836;}
	.st43{fill:#F9BA2B;}
	.st44{fill:#EFE1A5;}
	.st45{fill:#E0C485;}
	.st46{fill:#E5D0A3;}
	.st47{fill:#FF3B3B;}
	.st48{fill:#D62727;}
	.st49{fill:#F7BB8D;}
	.st50{fill:#DB9B65;}
	.st51{fill:#A0643C;}
	.st52{fill:#BF7C4B;}
	.st53{fill:#C18152;}
	.st54{fill:#FFF1CF;}
	.st55{fill:#29212D;}
	.st56{fill:#FFB164;}
	.st57{fill:#DD9A52;}
	.st58{fill:#A55E37;}
	.st59{fill:#FFCEA1;}
	.st60{fill:#FFAD36;}
	.st61{fill:#FFC639;}
	.st62{fill:#F7A12F;}
	.st63{fill:#EF435D;}
	.st64{fill:#D6294B;}
	.st65{fill:#F7E4BC;}
	.st66{opacity:0.6;fill:#843131;}
	.st67{fill:#E8AD7C;}
	.st68{fill:#FFDF5A;}
</style>
<rect class="st0" width="1256.2" height="755.7"/>
<path class="st1" d="M44.5,687c69.7,111.9,427.8,13,534.2,28.2c106.4,15.2,436.5,21.1,536.3-0.4c161.4-34.7,140.9-227.5,18.4-276.9
	c-127.1-51.3-24.1-62.2-183.8-237.6C843.4,83.7,620.3-14.3,322.3,31.5C126.1,61.6,25.6,178.9,81.2,321.2
	C211.9,655.7-38.9,553.2,44.5,687z"/>
<g>
	<g>
		<g>
			<rect x="913.7" y="318.8" class="st2" width="7.8" height="77.7"/>
			<rect x="858.4" y="318.8" class="st2" width="7.8" height="77.7"/>
			<path class="st3" d="M942.9,274.9H840c-3.6,0-6.6,2.9-6.6,6.6v49.6c0,2.5,2.1,4.6,4.6,4.6h105.4c2.6,0,4.7-2.1,4.7-4.7v-51
				C948,277.2,945.7,274.9,942.9,274.9z"/>
			<path class="st4" d="M924.5,278.6h-66.3c-3.6,0-6.6,2.9-6.6,6.6v20.1c0,2.5,2.1,4.6,4.6,4.6H925c2.6,0,4.7-2.1,4.7-4.7v-21.4
				C929.7,280.9,927.4,278.6,924.5,278.6z"/>
			<path class="st3" d="M967.6,345.8H814.3c-4,0-7.3,3.2-7.3,7.3v269.3h167.3V352.6C974.4,348.8,971.3,345.8,967.6,345.8z"/>
			<path class="st4" d="M953.1,355.2H823.4c-4,0-7.3,3.2-7.3,7.3v169.2h143.7V362C959.8,358.2,956.8,355.2,953.1,355.2z"/>
			<path class="st4" d="M945.2,543.5H836.7c-4,0-7.3,3.2-7.3,7.3v39.7h122.5v-40.2C951.9,546.5,948.9,543.5,945.2,543.5z"/>
			<path class="st5" d="M916.6,358.9h-87.1c-6.2,7.8-4.5,18,6.4,28.9c22.5,22.4,75.7,39.1,118.8,37.4c0.4,0,0.8,0,1.2-0.1v-58.5
				C956,362.3,938.4,358.9,916.6,358.9z"/>
			<path class="st3" d="M758.3,622.4h60.8c0,0,2.3-114.6-33.3-114.6C750.1,507.8,758.3,622.4,758.3,622.4z"/>
			<path class="st3" d="M804.2,484.2h-44.5c-3.6,0-6.6,2.9-6.6,6.6v35.7c0,2.5,2.1,4.6,4.6,4.6h47c2.6,0,4.7-2.1,4.7-4.7v-37.1
				C809.4,486.5,807.1,484.2,804.2,484.2z"/>
			<path class="st4" d="M799.2,489.9h-27.3c-3.6,0-6.6,2.9-6.6,6.6v19c0,2.5,2.1,4.6,4.6,4.6h29.8c2.6,0,4.7-2.1,4.7-4.7v-20.4
				C804.3,492.3,802,489.9,799.2,489.9z"/>
			<path class="st4" d="M763.3,622.4h47.4c0,0,1.8-94.6-26-94.6C757,527.8,763.3,622.4,763.3,622.4z"/>
			<path class="st3" d="M1020.5,622.4h-63.8c0,0-2.4-114.6,35-114.6C1029,507.8,1020.5,622.4,1020.5,622.4z"/>
			<path class="st4" d="M1022.1,622.4h-54.3c0,0-2.1-91.2,29.7-91.2C1029.4,531.1,1022.1,622.4,1022.1,622.4z"/>
			<path class="st3" d="M1013.6,484.2h-44.5c-3.6,0-6.6,2.9-6.6,6.6v35.7c0,2.5,2.1,4.6,4.6,4.6h47c2.6,0,4.7-2.1,4.7-4.7v-37.1
				C1018.8,486.5,1016.5,484.2,1013.6,484.2z"/>
			<path class="st4" d="M1001.6,494.7h-17.7c-3.6,0-6.6,2.9-6.6,6.6v13.4c0,2.5,2.1,4.6,4.6,4.6h20.2c2.6,0,4.7-2.1,4.7-4.7v-14.7
				C1006.8,497,1004.5,494.7,1001.6,494.7z"/>
		</g>
		<g>
			<rect x="337.5" y="318.8" class="st2" width="7.8" height="77.7"/>
			<rect x="282.3" y="318.8" class="st2" width="7.8" height="77.7"/>
			<path class="st3" d="M366.7,274.9H263.8c-3.6,0-6.6,2.9-6.6,6.6v49.6c0,2.5,2.1,4.6,4.6,4.6h105.4c2.6,0,4.7-2.1,4.7-4.7v-51
				C371.9,277.2,369.6,274.9,366.7,274.9z"/>
			<path class="st4" d="M348.4,278.6h-66.3c-3.6,0-6.6,2.9-6.6,6.6v20.1c0,2.5,2.1,4.6,4.6,4.6h68.8c2.6,0,4.7-2.1,4.7-4.7v-21.4
				C353.6,280.9,351.3,278.6,348.4,278.6z"/>
			<path class="st3" d="M391.5,345.8H238.2c-4,0-7.3,3.2-7.3,7.3v269.3h167.3V352.6C398.2,348.8,395.2,345.8,391.5,345.8z"/>
			<path class="st4" d="M376.9,355.2H247.3c-4,0-7.3,3.2-7.3,7.3v169.2h143.7V362C383.7,358.2,380.7,355.2,376.9,355.2z"/>
			<path class="st4" d="M369.1,543.5H260.6c-4,0-7.2,3.2-7.2,7.3v39.7h122.5v-40.2C375.8,546.5,372.8,543.5,369.1,543.5z"/>
			<path class="st5" d="M340.5,358.9h-87.1c-6.2,7.8-4.5,18,6.4,28.9c22.5,22.4,75.7,39.1,118.8,37.4c0.4,0,0.8,0,1.2-0.1v-58.5
				C379.8,362.3,362.2,358.9,340.5,358.9z"/>
			<path class="st3" d="M182.2,622.4H243c0,0,2.3-114.6-33.3-114.6C174,507.8,182.2,622.4,182.2,622.4z"/>
			<path class="st3" d="M228.1,484.2h-44.5c-3.6,0-6.6,2.9-6.6,6.6v35.7c0,2.5,2.1,4.6,4.6,4.6h47c2.6,0,4.7-2.1,4.7-4.7v-37.1
				C233.3,486.5,231,484.2,228.1,484.2z"/>
			<path class="st4" d="M223.1,489.9h-27.3c-3.6,0-6.6,2.9-6.6,6.6v19c0,2.5,2.1,4.6,4.6,4.6h29.8c2.6,0,4.7-2.1,4.7-4.7v-20.4
				C228.2,492.3,225.9,489.9,223.1,489.9z"/>
			<path class="st4" d="M187.2,622.4h47.4c0,0,1.8-94.6-26-94.6S187.2,622.4,187.2,622.4z"/>
			<path class="st3" d="M444.4,622.4h-63.8c0,0-2.4-114.6,35-114.6C452.9,507.8,444.4,622.4,444.4,622.4z"/>
			<path class="st4" d="M446,622.4h-54.3c0,0-2.1-91.2,29.7-91.2C453.3,531.1,446,622.4,446,622.4z"/>
		</g>
		<g>
			<path class="st6" d="M445.3,306.1l-3.2,1.2l18.7,37.7c0,0-13.6,30.4-14.2,31l2.8,1.8l14.8-32.7L445.3,306.1z"/>
			<path class="st3" d="M671.9,279H550.1c-3.6,0-6.6,2.9-6.6,6.6v49.6c0,2.5,2.1,4.6,4.6,4.6h124.4c2.6,0,4.7-2.1,4.7-4.7v-51
				C677.1,281.3,674.8,279,671.9,279z"/>
			<path class="st4" d="M669,282.7h-79.2c-3.6,0-6.6,2.9-6.6,6.6v20.1c0,2.5,2.1,4.6,4.6,4.6h81.7c2.6,0,4.7-2.1,4.7-4.7v-21.4
				C674.2,285.1,671.9,282.7,669,282.7z"/>
			<path class="st3" d="M699.3,345.8h-181c-4,0-7.3,3.2-7.3,7.3v269.3h195V352.6C706,348.8,703,345.8,699.3,345.8z"/>
			<path class="st4" d="M673.1,543.5H544.4c-4,0-7.3,3.2-7.3,7.3v39.7h142.7v-40.2C679.9,546.5,676.8,543.5,673.1,543.5z"/>
			<path class="st4" d="M693.1,349.5h-20.6c-1.5,9.3-1.1,21.5,1.5,34.5c5.3,26.7,17.9,46.6,28.1,44.6c0.1,0,0.2-0.1,0.3-0.1v-69.7
				C702.4,353.6,698.3,349.5,693.1,349.5z"/>
			<path class="st7" d="M566.1,465.3c-27.3-7.4-40.7,18.9-44.7,38.7c-4,19.9,3.1,61.2,17.3,114.5h4.8c0,0,52.4-84.2,57.7-107.9
				C605.9,489.3,593.4,472.6,566.1,465.3z"/>
			<path class="st7" d="M550.3,622.3h-33.9c0,0,18.8-13,26.7-13.4C551,608.5,550.3,622.3,550.3,622.3z"/>
			<path class="st7" d="M648.2,458.8c25.4-7.7,41.3,18.3,44.1,39c2.8,20.7-10.5,65.1-25.9,120.7H662c0,0-43-89.9-51.3-110.6
				C602.4,487.2,622.8,466.5,648.2,458.8z"/>
			<path class="st7" d="M657.1,622.4h28.8c0,0-16-11.8-22.7-12.1C656.5,610,657.1,622.4,657.1,622.4z"/>
			<path class="st7" d="M700.2,486.7c0,0-8.5-34.9-58-48.6c-2.7-0.7-6.3-1.4-10.5-1.9c22,7.1,50.9,28.8,52,36.7
				c2.4,17.2-43.5,30.9-85.5,36c-42,5.1-77.7-4.7-79.8-21.9c-1.2-10.1,9.5-25.5,27.1-37.5c-16.5,8-31.2,20.1-40.9,38
				c-31.1,57.2,31.7,79.3,104.5,48.4C705.3,546.3,700.2,486.7,700.2,486.7z"/>
			<path class="st3" d="M446.6,622.4h70.9c0,0,2.7-114.6-38.8-114.6C437.1,507.8,446.6,622.4,446.6,622.4z"/>
			<path class="st3" d="M501,484.2h-53.9c-3.6,0-6.6,2.9-6.6,6.6v35.7c0,2.5,2.1,4.6,4.6,4.6h56.4c2.6,0,4.7-2.1,4.7-4.7v-37.1
				C506.2,486.5,503.9,484.2,501,484.2z"/>
			<path class="st4" d="M476.6,498.2H451c-3.6,0-6.6,2.9-6.6,6.6v13.6c0,2.5,2.1,4.6,4.6,4.6h28.1c2.6,0,4.7-2.1,4.7-4.7v-14.9
				C481.8,500.5,479.5,498.2,476.6,498.2z"/>
			<path class="st4" d="M452.5,622.4h55.2c0,0,2.1-94.6-30.3-94.6C445.1,527.8,452.5,622.4,452.5,622.4z"/>
			<path class="st3" d="M759.8,622.4h-74.4c0,0-2.8-114.6,40.7-114.6C769.7,507.8,759.8,622.4,759.8,622.4z"/>
			<path class="st4" d="M761.7,622.4h-63.2c0,0-2.4-91.2,34.6-91.2C770.1,531.1,761.7,622.4,761.7,622.4z"/>
			<polygon class="st8" points="750.5,459 712,459 715,510.1 747.5,510.1 			"/>
			<path class="st9" d="M717.1,464.4c0,7.6,6.2,13.7,13.8,13.7c7.6,0,13.8-6.1,13.8-13.7c0-1.4-0.2-2.7-0.6-3.9h-26.4
				C717.3,461.7,717.1,463,717.1,464.4z"/>
			<rect x="709.6" y="456.2" class="st10" width="44.1" height="5.4"/>
			<path class="st3" d="M752.6,484.2h-53.9c-3.6,0-6.6,2.9-6.6,6.6v35.7c0,2.5,2.1,4.6,4.6,4.6h56.4c2.6,0,4.7-2.1,4.7-4.7v-37.1
				C757.8,486.5,755.4,484.2,752.6,484.2z"/>
			<path class="st4" d="M751.7,484.3h-39c-3.6,0-6.6,2.9-6.6,6.6V516c0,2.5,2.1,4.6,4.6,4.6h41.5c2.6,0,4.7-2.1,4.7-4.7v-26.4
				C756.8,486.6,754.5,484.3,751.7,484.3z"/>
			<path class="st11" d="M480,430.1l-7.2,11.1c0,0-19.7-35.1-28-45l-4.7,3.6c-8.3,46.5-1.7,87.2,19.1,93.5
				c20.8,6.3,39.3-2.7,49.7-34.3L480,430.1z"/>
			<path class="st12" d="M480,430.1l-7.2,11.1c0,0-1.6-2.9-4.2-7.3c-0.2,12.9-3,22.1-7.8,22.9c-7.2,1.2-16.2-16.7-20.1-40
				c-0.7-4.1-1.1-8-1.4-11.8c-6.9,44.3,0,82.2,20,88.3c20.8,6.3,39.3-2.7,49.7-34.3L480,430.1z"/>
			<path class="st12" d="M656.6,289.2c-9.6-36.1-60.2-86.7-60.2-86.7l-4.2,6c1.8,37.9,18.1,72.2,18.1,72.2s-6.6,16.3-17.4,73.2
				l69.2,46.6C662.1,400.6,666.3,325.3,656.6,289.2z"/>
			<path class="st11" d="M657.7,288.3c-4.9-18.3-23.8-46.8-41.1-63.6l-0.2,24.1c12,15.7,22,38.3,26.1,53.8c2,7.7,3.5,17.1,4.4,27.2
				l15.4,3.5C661.5,317.1,660.9,300.1,657.7,288.3z"/>
			<polygon class="st13" points="597.8,313.6 580.8,354.1 669.8,413.5 668.7,359 			"/>
			<path class="st14" d="M668.7,359l-5.4-3.4c0.7,4.6,2.5,14.6-1.8,18.3c-7.1,6-28-5.2-47.4-25.9c-8.5-9.1-15.3-18.5-19.6-26.6
				l-13.7,32.6l89,59.4L668.7,359z"/>
			<path class="st14" d="M497.6,474.9L473,436.8c0,0,17.8-58.5,42.7-61.9L497.6,474.9z"/>
			<path class="st13" d="M515.8,525.2c-21.7,12.6-40.3-41.5-16.9-69.8c0,0-19-35.3,3.8-68.4c34.4-50,90.7-44.1,125-20.1
				c34.3,24.1,80.7,98.1,65,127.6C677.1,524,515.8,525.2,515.8,525.2z"/>
			<path class="st14" d="M640.2,377.3c19.4,27.6-7.7,26-12.2,27.6c5.7,2.8,54,22.2,55.3,53.3c0.6,14.9-70.8-7.5-101.8,0.5
				c-31,8-74.2,19.3-73.2,4.4c1.9-28.7,33.2-43.9,56.4-53.2c-21.3,4.9-39.7,12.6-52.4,21.8c-7.5-5.4-13.2-12.6-16.1-21.3
				c-0.8-2.3-1.3-4.7-1.7-7c-9,27.4,0.3,51.1,0.3,51.1c-23.5,28.3-0.7,83.4,20.9,70.8c0,0,161.3-1.2,177-30.7
				C706.6,468.4,677.2,403.5,640.2,377.3z"/>
			<path class="st15" d="M504.6,480.6c31.2-57.3,115.1-55.6,137.6-49.4c49.5,13.7,58,48.6,58,48.6s3.8,54.6-92.3,44.1
				C535.1,554.9,473.6,537.8,504.6,480.6z"/>
			<path class="st16" d="M505.3,483.7c31.2-57.3,115.1-55.6,137.6-49.4c42.6,11.8,54.8,39.3,57.4,46.7c0-0.7,0-1.2,0-1.2
				s-8.5-34.9-58-48.6c-22.4-6.2-106.4-8-137.6,49.4c-7.6,14-9.7,25.6-7.4,34.7C496.1,506.8,498.5,496.2,505.3,483.7z"/>
			<path class="st16" d="M700.2,479.8c0,0-8.5-34.9-58-48.6c-2.7-0.7-6.3-1.4-10.5-1.9c22,7.1,50.9,28.8,52,36.7
				c2.4,17.2-43.5,30.9-85.5,36c-42,5.1-77.7-4.7-79.8-21.9c-1.2-10.1,9.5-25.5,27.1-37.5c-16.5,8-31.2,20.1-40.9,38
				c-31.1,57.2,31.7,79.3,104.5,48.4C705.3,539.4,700.2,479.8,700.2,479.8z"/>
			<path class="st15" d="M663.3,458.8c25.4-7.7,41.3,18.3,44.1,39c2.8,20.7-10.5,65.1-25.9,120.7h-4.4c0,0-43-89.9-51.3-110.6
				C617.6,487.2,638,466.5,663.3,458.8z"/>
			<path class="st16" d="M707.4,497.9c-2.4-18.2-17.5-47.2-37.8-47c16.2,8,22,29.8,23.8,42c2.8,18.9-5.6,71.8-19.7,63.8
				c-17.2-9.7-40.6-43.1-48.4-61.9c-0.3-0.6-0.5-1.2-0.7-1.8c-1.1,4.9-1.9,11.9,0.1,16.9c8.3,20.7,52.4,108.7,52.4,108.7h4.4
				C697,562.9,710.2,518.6,707.4,497.9z"/>
			<path class="st15" d="M548.3,458.8c-27.7-7.7-39.8,19.7-42.8,40.4c-3,20.7,6.1,63.7,22.9,119.3h4.8c0,0,48.3-87.7,52.4-112.4
				C589.3,483.8,576,466.5,548.3,458.8z"/>
			<path class="st16" d="M582.7,478.7c1,4,3.7,11.3,3.7,15.4c0,41.4-33.9,72.2-51.7,72.2s-32.3-33.6-32.3-75c0-1,0-2.1,0-3.1
				c-1.1,3.2-1.9,6.5-2.3,9.6c-3,20.7,11.4,65.1,28.3,120.7h4.8c0,0,51.8-78.2,56-110.6C590.7,496.8,590.5,487.4,582.7,478.7z"/>
			<path class="st17" d="M512.6,369.4c-19.1,2.2-21.9-20.7-21.9-20.7s-14.1-9.5-12.4-25.4c3.4-32.3,29.4-43.6,44-41
				c5.3,0.9,26,17,26,17L512.6,369.4z"/>
			<path class="st18" d="M518.4,314.8c-14.5,0-27.2-4.5-34.2-11.1c-2.9,5.4-5.1,11.9-5.9,19.6c-1.7,15.8,12.4,25.4,12.4,25.4
				s2.8,22.9,21.9,20.7l30.4-59.4C536.2,313,527.7,314.8,518.4,314.8z"/>
			<path class="st11" d="M510.9,376.1c-3.2-21.4-5-36.7-4.1-37.3s49.8,27,49.8,27S532,388.5,510.9,376.1z"/>
			<g class="st19">
				<path class="st20" d="M557.2,397.1c28.3-20.1,43.2-47,31.3-61.5l-5.8,13.8c-14.5-1.8-29.7-0.1-43.9,6.3
					c-7.7-4.3-16.4-9.1-22.8-12.6c-2.9,2-5.9,4.1-8.7,6.3c0.7,6.6,2,15.8,3.6,26.5c0,0,0.1,0,0.1,0.1c-14.3,6-25.9,29.1-32.3,45
					C479.7,422.3,512.8,428.6,557.2,397.1z"/>
			</g>
			<path class="st11" d="M510.7,358.5c18.9,33.3,67.6,28.8,78.1-3c10.4-31.8-12.4-31.8-35.3-55.2c-11.4-11.7-25.7-17.2-37.1-13.9
				c-11.4,3.3-19.8,15.4-20.6,21.4C494.3,319.7,497.4,335,510.7,358.5z"/>
			<polygon class="st12" points="533.2,288.4 500,330.2 519.3,342.1 534.4,317.4 535.6,311.3 547,294.9 543.3,292.3 			"/>
			<g>
				<path class="st21" d="M572.8,325.2c-6.6-7.4-20.3-12.7-25.5-8.5c-5.3,4.2-0.2,16.4,6.5,23.8c6.6,7.4,12.3,7.2,17.6,3
					C576.6,339.2,579.4,332.6,572.8,325.2z"/>
				<path class="st22" d="M535,311.4c0.9-3.4,4.7-6.4,7.4-3.2c2.7,3.2,1.4,7.5,0.1,8.6C541.2,317.8,533.7,316.3,535,311.4z"/>
				<path class="st11" d="M535,313.1c0.7-2.9,4-5.4,6.2-2.7c2.3,2.7,1.2,6.3,0.1,7.2C540.2,318.5,533.9,317.3,535,313.1z"/>
				<path class="st23" d="M570.8,343.1c4-3.2,6.4-7.9,3.9-13.2c-3.4-0.1-7.4,0.5-11.5,2c-4.2,1.5-8,3.5-10.7,5.8
					c0.7,0.9,1.4,1.8,2.1,2.6C560.7,347.1,566,347,570.8,343.1z"/>
				<path class="st21" d="M521.7,318.6c-5,4.9-4.9,11.2-1.7,7.9C523.3,323.1,521.7,318.6,521.7,318.6z"/>
				<path class="st21" d="M532.9,301.2c4.3-5.4,10.5-6,7.6-2.4C537.5,302.3,532.9,301.2,532.9,301.2z"/>
			</g>
			<path class="st12" d="M585.2,326.4c-0.2,3.4-1,7.2-2.5,11.7c-10.4,31.8-59.2,36.3-78.1,3c-3.1-5.4-1.3,4.4,6.1,17.4
				c18.9,33.3,67.6,28.8,78.1-3C593.7,340.8,591.4,332.9,585.2,326.4z"/>
			<path class="st18" d="M492.1,329.4c16.8,6.1,33.7,26.4,33.7,26.4l-12.8,2.8l-14-9.7L492.1,329.4z"/>
			<polygon class="st24" points="500.4,354.6 501,326 510,330.7 503.5,355.6 			"/>
			<path class="st11" d="M515.9,366.6c-13.9-2.6-23.7-8.9-17.9-14.2c5.8-5.2,15-1.5,17.8,4.1C518.6,362.2,515.9,366.6,515.9,366.6z"
				/>
			<path class="st25" d="M536.4,237.3c14,34.8,23.9,40.6,51.9,58.7c0,0,15.3-69.5,33-91.6c0,0-28-37-42.9-38.8l-12.2,34.8l-5.9,3.2
				l-2.3,7.7L536.4,237.3z"/>
			<polygon class="st26" points="401.7,406.5 428.2,355 463.1,380.9 427.2,424.6 			"/>
			<path class="st27" d="M428.2,355l-8,15.5c5.1-2.3,9.9-2.5,13.5-0.2c8.1,5.3,6.8,21.6-2.8,36.5c-3.3,5.1-7.2,9.4-11.2,12.6
				l7.4,5.3l35.9-43.7L428.2,355z"/>
			<path class="st17" d="M532.5,284.8c-4.3-0.5-12.3,3.8-13.9,7.7c-1.6,3.8,5,4.9,5.8,2.7c0.8-2.2,5.1-5.4,10.9-6.9
				C535.4,288.2,536.8,285.3,532.5,284.8z"/>
			<polygon class="st24" points="532.1,283.4 499,325.2 518.2,337.1 547,289 			"/>
			<g>
				<polygon class="st6" points="518.8,305.4 505.4,323.4 517.5,330.9 529.6,311 				"/>
				<polygon class="st28" points="532.5,306.1 541.8,290.8 532.4,287.2 522.3,300.7 				"/>
			</g>
			<path class="st29" d="M461.5,382.5l-36.4-24c0,0,11.6-16.1,31-5.8C475.6,363,461.5,382.5,461.5,382.5z"/>
			<path class="st30" d="M536.3,622.4h-26.8c0,0,14.9-10.3,21.1-10.5C536.8,611.5,536.3,622.4,536.3,622.4z"/>
			<path class="st30" d="M672.9,622.4H698c0,0-14-10.3-19.8-10.5C672.4,611.5,672.9,622.4,672.9,622.4z"/>
			<path class="st31" d="M608.6,211.1c1.4-4.9,2.5-9.7,3.3-14.4c-8.7-10.4-23.9-26.9-33.5-28L567,201.2l-5.5,3l-2.1,7.2l-13.7,16.5
				c1,16,7,28.1,16.9,31C578.8,263.7,599.4,242.3,608.6,211.1z"/>
			<polygon class="st25" points="560.3,203.5 605.8,223.6 567.3,200.4 			"/>
			<polygon class="st25" points="596.3,242.8 559.4,211.3 600.9,233.4 			"/>
			<path class="st32" d="M588.3,296c-9.9-24.5-52.8-59.6-51.9-58.7c0.9,0.9-2.6,19.9,16.9,35C572.8,287.5,588.3,296,588.3,296z"/>
			<path class="st22" d="M512.8,363.9c-9.2-1.7-15.8-6-11.9-9.4c3.8-3.5,10-1,11.9,2.7C514.6,360.9,512.8,363.9,512.8,363.9z"/>
			<path class="st11" d="M514.7,365.3c-6.6-1.2-11.3-4.3-8.6-6.8c2.8-2.5,7.1-0.7,8.5,2C516.1,363.2,514.7,365.3,514.7,365.3z"/>
			<path class="st31" d="M575.3,292.9c0-6.6,1.8-12-1.3-12c-3.1,0-9.8,5.4-9.8,12c0,6.6,6.8,11.8,9.8,11.8
				C577,304.6,575.3,299.4,575.3,292.9z"/>
			<path class="st31" d="M553.3,311.1c0.7,6.5-0.5,12.1,2.6,11.8c3.1-0.3,9.2-6.4,8.5-13c-0.7-6.5-8-11-11-10.6
				C550.3,299.6,552.6,304.6,553.3,311.1z"/>
			<path class="st31" d="M557.2,280.5c6.5-0.4,12.1,1,11.9-2c-0.2-3.1-6-9.5-12.5-9.1c-6.5,0.4-11.3,7.5-11.2,10.5
				C545.6,282.9,550.7,280.9,557.2,280.5z"/>
			<path class="st33" d="M548.8,249.9c-0.1,0.2-0.2,0.3-0.3,0.5c-3.3,5.7-0.1,13.6,2.5,15.1c2.3,1.4,3.5-2.6,5.9-7.4L548.8,249.9z"
				/>
			<path class="st17" d="M504.8,307c-3.9,1.5-8.6,10.6-8,16c0.6,5.4,6.7,3.4,6.3,0.4c-0.4-3,1.6-9.1,5.8-13.7
				C509,309.7,508.7,305.6,504.8,307z"/>
			<path class="st34" d="M462.9,358c0.3,1.3,0.2,2.6-0.4,3.8c-2.3,5.1-11.4,5.9-20.5,1.8c-5.6-2.5-9.9-6.3-11.7-10.1
				c-3.4,2.4-5.2,4.9-5.2,4.9l36.4,24C461.5,382.5,471.6,368.5,462.9,358z"/>
			
				<rect x="419.7" y="367" transform="matrix(0.8143 0.5805 -0.5805 0.8143 296.9649 -188.9707)" class="st29" width="48.3" height="5.1"/>
			<path class="st26" d="M451.6,392.6c-12,0.6-23.4-2.1-39.2,0.7l-6.8,13.2l21.8,15.5L451.6,392.6z"/>
		</g>
		<g>
			<path class="st7" d="M823.8,578.4L823.8,578.4c0-0.9-0.6-1.5-1.3-1.5l-24.6-0.1c-0.7,0-1.3,0.7-1.3,1.5l0,0c0,0.7,0.4,1.3,1,1.5
				l0,8.8l-0.1,33.7l15.3,0c0,0,0,0,0,0l9.9,0l0-26.7c0,0.1,0,0.1,0,0.2l0-15.9C823.4,579.7,823.8,579.2,823.8,578.4L823.8,578.4
				C823.8,578.4,823.8,578.4,823.8,578.4C823.8,578.4,823.8,578.4,823.8,578.4z"/>
			<path class="st7" d="M786.2,596.1L786.2,596.1l-25.2-0.1c-0.8-0.4-1.7-0.7-2.6-0.7c-2.2,0-4.2,1.3-5.7,3.4l0,0v0
				c-0.2,0.3-0.4,0.6-0.6,1c0,0,0,0,0,0c-0.1,0.2-0.2,0.4-0.3,0.6l-0.8-3.4c0,0,0,0,0,0l-0.4-1.7l1.5-2.1h0l8.9-12.1c0,0,0,0,0,0
				l1.3-1.7l0.1,0c0.2,0.1,0.3,0.1,0.5,0.1c0,0,0,0,0,0c0.2,0,0.3-0.1,0.4-0.1c0,0,0.1,0,0.1,0c0,0,0.1,0,0.1-0.1
				c0,0,0.1-0.1,0.1-0.1c0,0,0,0,0.1-0.1c0.1-0.1,0.1-0.1,0.2-0.2c0,0,0-0.1,0.1-0.1c0-0.1,0.1-0.1,0.1-0.2c0,0,0-0.1,0-0.1
				c0-0.1,0.1-0.1,0.1-0.2l0,0c0.3-0.9-0.2-1.8-0.9-2.1l-25.4-9.7c-0.8-0.3-1.6,0.2-1.8,1c-0.3,0.9,0.2,1.8,0.9,2.1l0.1,0.1
				l-2.8,16.6l-1.5,6.8l-0.3,0c-0.3,0-0.6-0.1-0.8-0.1c-0.3,0-0.6,0-0.8,0.1l-6.6,0c0,0,0,0,0,0l-14.2,0l-3.7,0c0,0,0,0,0,0s0,0,0,0
				h0v0c-2,0-3.9,0.7-5.5,2h0c0,0,0,0,0,0c-0.4,0.3-0.7,0.6-1.1,0.9c-0.1,0.1-0.1,0.1-0.2,0.2c-0.2,0.2-0.3,0.3-0.5,0.5
				c0,0-0.1,0.1-0.1,0.1c-0.3,0.3-0.5,0.7-0.8,1c-0.1,0.1-0.1,0.2-0.2,0.3c-0.1,0.2-0.2,0.3-0.3,0.5c-0.1,0.2-0.2,0.3-0.3,0.5
				c-0.1,0.2-0.3,0.5-0.4,0.7c-0.1,0.2-0.2,0.4-0.3,0.6c-0.1,0.2-0.1,0.3-0.2,0.5c-0.1,0.3-0.2,0.6-0.3,0.9c0,0.1-0.1,0.2-0.1,0.4
				c-0.1,0.3-0.2,0.6-0.3,0.9c0,0.1-0.1,0.3-0.1,0.4c-0.1,0.4-0.2,0.8-0.2,1.2c0,0,0,0.1,0,0.1c-0.1,0.4-0.1,0.8-0.1,1.2
				c0,0.1,0,0.2,0,0.3c0,0.4-0.1,0.9-0.1,1.3c0,8.1,5,14.7,11.1,14.7c0.1,0,0.1,0,0.2,0h25v0c0.1,0,0.1,0,0.2,0c0.3,0,0.6,0,0.9-0.1
				l6.9,0c0,0,0,0,0,0l17.9,0l0-0.2c0.4,0.1,0.8,0.2,1.2,0.2c0.3,0,0.5,0,0.8-0.1l27,0.1c0,0,0,0,0,0l0.1,0v0c4.4-0.1,8-5.8,8-12.8
				c0-0.1,0-0.2,0-0.3c0-0.1,0-0.2,0-0.3C794.3,602,790.7,596.3,786.2,596.1z"/>
		</g>
		<g>
			<g>
				<path class="st35" d="M767.2,582.6L743,575l-3.1,16.2l-7.7,31.2l30.5,0.1l-6.6-23.4l11.8-14
					C768.5,584.1,768.1,582.9,767.2,582.6z"/>
				<path class="st36" d="M757.6,597.1c-5.6,0.3-10.3-1.8-10.5-4.7c-0.3-3.2,3.2-8.1,9.2-8.7c3.8-0.4,7.6,1,10.1,2.9l1.4-1.7
					c0.7-0.8,0.3-2-0.7-2.3L743,575l-3.1,16.2l-7.7,31.2l12.8,0c-0.2-0.8-0.3-1.7-0.5-2.5c-1.6-11.1,1.3-20.8,6.6-21.5
					c1.8-0.3,3.7,0.6,5.4,2.2l-0.4-1.5L757.6,597.1z"/>
				<path class="st37" d="M768.6,582.4l-25.2-8.4c-0.8-0.3-1.6,0.2-1.8,0.9l0,0c-0.3,0.7,0.2,1.6,0.9,1.8l25.2,8.4
					c0.8,0.3,1.6-0.2,1.8-0.9l0,0C769.8,583.5,769.4,582.7,768.6,582.4z"/>
				<path class="st38" d="M768.1,583.8l-25.2-8.4c-0.5-0.2-0.8-0.6-0.9-1.1c-0.2,0.2-0.3,0.3-0.4,0.6c-0.3,0.8,0.2,1.6,0.9,1.8
					l25.2,8.4c0.8,0.3,1.6-0.2,1.8-0.9c0.1-0.2,0.1-0.5,0-0.7C769.2,583.9,768.6,584,768.1,583.8z"/>
			</g>
			
				<rect x="802.7" y="584.1" transform="matrix(1 1.944140e-03 -1.944140e-03 1 1.1742 -1.5836)" class="st9" width="24.9" height="38.3"/>
			<g>
				<path class="st39" d="M827.7,599.4l0-15.3l-2.1,0C826.3,588.5,827,593.7,827.7,599.4z"/>
				<path class="st39" d="M811.9,605.7c-1.4-9-0.4-17.1,2.1-21.6l-11.3,0l-0.1,38.3l15.2,0C815.1,618.3,813,612.5,811.9,605.7z"/>
				<circle class="st37" cx="817.1" cy="602.4" r="8.5"/>
			</g>
			<path class="st37" d="M827.3,583l-24.3,0c-0.7,0-1.3,0.6-1.3,1.3l0,0c0,0.7,0.6,1.3,1.3,1.3l24.3,0c0.7,0,1.3-0.6,1.3-1.3l0,0
				C828.6,583.6,828,583,827.3,583z"/>
			<path class="st38" d="M827.3,584.3l-24.3,0c-0.5,0-0.9-0.3-1.1-0.6c-0.1,0.2-0.2,0.4-0.2,0.7c0,0.7,0.6,1.3,1.3,1.3l24.3,0
				c0.7,0,1.3-0.6,1.3-1.3c0-0.3-0.1-0.5-0.2-0.7C828.2,584.1,827.8,584.3,827.3,584.3z"/>
			<g>
				<path class="st9" d="M738.5,597.1l-26.2-0.1c0,0,0,0,0,0s0,0,0,0h0v0c-6.1,0-11,5.7-11,12.6c0,7,4.9,12.7,11,12.7
					c0.1,0,0.1,0,0.2,0h24.7L738.5,597.1z"/>
				<path class="st40" d="M717.1,606.6c-0.1,0-0.1,0-0.2,0c-4.6,0-8.6-3.3-10.2-7.9c-3.3,2.2-5.5,6.3-5.5,11c0,7,4.9,12.7,11,12.7
					c0.1,0,0.1,0,0.2,0h24.7l0.9-15.8H717.1z"/>
				
					<ellipse transform="matrix(1.941524e-03 -1 1 1.941524e-03 126.1708 1345.7664)" class="st37" cx="737.3" cy="609.7" rx="12.7" ry="11"/>
				
					<ellipse transform="matrix(1.945532e-03 -1 1 1.945532e-03 126.476 1346.4436)" class="st38" cx="737.8" cy="609.9" rx="10.9" ry="9.5"/>
				
					<ellipse transform="matrix(1.963291e-03 -1 1 1.963291e-03 125.8374 1346.0543)" class="st37" cx="737.3" cy="610" rx="9.9" ry="8.4"/>
				<path class="st38" d="M740.2,612.1c2.2,0,4,0.3,4-2.5c0-2.7-1.8-2.5-4-2.5c-2.2,0-4-0.3-4,2.5
					C736.3,612.3,738,612.1,740.2,612.1z"/>
				<path class="st41" d="M740,611.7c1.9,0,3.5,0.2,3.5-2.1s-1.6-2.1-3.5-2.1c-1.9,0-3.5-0.2-3.5,2.1S738.1,611.7,740,611.7z"/>
				<path class="st37" d="M713.4,597c0,0,0,0.1,0,0.1c0.2,1.7,4.3,2.6,9.2,2.1c3.2-0.3,5.9-1.2,7.4-2.2L713.4,597z"/>
			</g>
			<g>
				<path class="st42" d="M799.4,610.8c0-6.1-3.5-11-7.9-11.1v0l-27.3-0.1l0,22.2l27.2,0.1c0,0,0,0,0,0l0,0l0.1,0v0
					C795.8,621.7,799.4,616.8,799.4,610.8z"/>
				<path class="st43" d="M794.4,611.4L794.4,611.4l-0.1,0c0,0,0,0,0,0l0,0l-30.1-0.1l0,11l27.2,0.1c0,0,0,0,0,0l0,0l0.1,0v0
					c4.4-0.1,7.9-5,8-11.1c0-0.6,0-1.2-0.1-1.8C797.9,610.7,796.2,611.3,794.4,611.4z"/>
				
					<ellipse transform="matrix(1.947703e-03 -1 1 1.947703e-03 151.7233 1373.4109)" class="st37" cx="763.9" cy="610.7" rx="11.6" ry="8.5"/>
				<path class="st44" d="M766.7,613.4c-4.6,0-8.3-5.1-8.4-11.4c-1.8,2.1-2.9,5.2-2.9,8.7c0,6.4,3.8,11.7,8.4,11.7
					c4.7,0,8.5-5.2,8.5-11.6c0-0.1,0-0.2,0-0.3C770.9,612.3,768.9,613.4,766.7,613.4z"/>
				
					<ellipse transform="matrix(1.924746e-03 -1 1 1.924746e-03 150.785 1372.4661)" class="st38" cx="762.9" cy="610.7" rx="9.7" ry="6.7"/>
				
					<ellipse transform="matrix(1.927856e-03 -1 1 1.927856e-03 151.2144 1372.8967)" class="st45" cx="763.4" cy="610.7" rx="8.6" ry="6"/>
				<path class="st38" d="M761.2,607c0,1.9-0.1,3.5,1.4,3.5c1.5,0,1.4-1.5,1.4-3.5c0-1.9,0.1-3.5-1.4-3.5
					C761.1,603.5,761.2,605.1,761.2,607z"/>
				<path class="st41" d="M761.4,606.8c0,1.7-0.1,3.1,1.1,3.1c1.3,0,1.1-1.4,1.1-3.1c0-1.7,0.1-3.1-1.1-3.1
					C761.3,603.7,761.4,605.1,761.4,606.8z"/>
			</g>
		</g>
		<path class="st7" d="M926.1,536.1L926.1,536.1l3.8,0.2l-2-9.3l0.2-1.1h0l1.4-6.8l-30.9-6.2l0.2-1.8h0l2.7-23.1
			c0.8-0.6,1.3-1.4,1.3-2.4v0c0-1.3-0.9-2.4-2.2-2.8c-0.4-0.3-0.8-0.4-1.3-0.4h-14.9l5.8-17.6l20.8,6.6l1.1-3.3l-23.5-5.9l-0.6,1.9
			l0.1,0l-6,18.2h-12.7c-0.4,0-0.7,0.1-1,0.2c-1.9,0-3.4,1.4-3.4,3c0,1.4,1.1,2.5,2.5,2.9l0.7,9.7l-28.4,3l-5,2.2l19.1,17.9
			l-20.9,0.3l-0.9,6.1l3.4,6.1l35.4,0.5l0,0.1l3.8-0.1l4.3,0.1l0.1-0.1l15.4-0.2L926.1,536.1z"/>
		<g>
			
				<rect x="878.1" y="451" transform="matrix(0.9613 0.2755 -0.2755 0.9613 162.3886 -224.243)" class="st46" width="2.3" height="29.5"/>
			<polygon class="st47" points="860.8,477.7 864.4,534.1 889.7,533.6 895.3,478.6 			"/>
			<polygon class="st48" points="881.9,505.6 871.5,485.8 894.7,484.3 895.3,478.6 860.8,477.7 864.4,534.1 889.7,533.6 
				892.4,507.4 			"/>
			<polygon class="st49" points="884.7,533.4 887.6,508.4 923,516.5 919.6,536.1 			"/>
			<polygon class="st50" points="899.4,527.8 898,510.8 887.6,508.4 884.7,533.4 923.4,536.3 921.4,525.6 			"/>
			<polygon class="st51" points="890.8,523.5 921.7,524.3 921.4,525.9 892.2,528.5 			"/>
			<polygon class="st49" points="878.6,522.8 879.7,510.9 864.7,492.2 833.3,496 828.4,498.5 849.1,520.8 			"/>
			<polygon class="st52" points="831.1,498.9 859.7,496.7 876.4,520.8 849.3,520.1 			"/>
			<polygon class="st50" points="829.1,533.4 825.7,526.4 826.6,519.4 875.5,518.5 878.6,522.8 872.5,534.1 			"/>
			<polygon class="st53" points="829.1,533.4 825.7,526.4 878.6,522.8 872.5,534.1 			"/>
			<polygon class="st49" points="875.5,518.5 850.3,519 850.3,524.7 855.6,533.7 872.5,534.1 878.6,522.8 			"/>
			<path class="st46" d="M892.9,474.6h-30.9c-1.9,0-3.5,1.6-3.5,3.5l0,0c0,1.9,1.6,3.5,3.5,3.5h30.9c1.9,0,3.5-1.6,3.5-3.5v0
				C896.4,476.1,894.9,474.6,892.9,474.6z"/>
			<path class="st54" d="M892.8,474.3h-29.9c-1.2,0-2.1,1-2.1,2.1l0,0c0,1.2,1,2.1,2.1,2.1h29.9c1.2,0,2.1-1,2.1-2.1v0
				C895,475.3,894,474.3,892.8,474.3z"/>
			<polygon class="st54" points="904.6,461.7 905.7,457.9 882.2,451.2 881.5,453.3 			"/>
		</g>
		<ellipse class="st55" cx="309.9" cy="535.9" rx="72.4" ry="2.4"/>
		<polygon class="st55" points="389.4,488.3 351.4,487.4 312.7,536.7 391.8,536.7 		"/>
		<g>
			<polygon class="st56" points="274.4,471.8 226.9,471.8 239.8,532.5 319.8,532.5 330.2,522.1 			"/>
			<polygon class="st57" points="249.8,525.3 226.9,471.8 221.8,483.1 239.8,532.5 319.8,532.5 330.2,522.1 			"/>
			<polygon class="st58" points="224.9,480.9 243.8,530.3 320.1,529.4 246.5,528.3 225.6,479.2 			"/>
			<path class="st59" d="M262.2,482.3c-12.6,0-18.6,7.5-13.4,16.9c5.2,9.4,19.7,17,32.3,17c12.6,0,18.6-7.5,13.4-16.9
				C289.3,489.9,274.8,482.3,262.2,482.3z"/>
			<path class="st56" d="M262.8,484.5c-10.8,0-16,6.5-11.5,14.7c4.5,8.1,16.9,14.8,27.7,14.8c10.8,0,16-6.5,11.5-14.7
				C286,491.1,273.6,484.5,262.8,484.5z"/>
			<path class="st59" d="M263.5,486.5c-2.1,0-3,1.2-2.2,2.7c0.9,1.5,3.2,2.8,5.3,2.8c2.1,0,3-1.2,2.2-2.7
				C267.9,487.8,265.6,486.5,263.5,486.5z"/>
			<path class="st59" d="M255.2,495.5c-2.1,0-3,1.2-2.2,2.7c0.9,1.5,3.2,2.8,5.3,2.8c2.1,0,3-1.2,2.2-2.7
				C259.6,496.7,257.3,495.5,255.2,495.5z"/>
			<path class="st59" d="M275.7,508c-2.1,0-3,1.2-2.2,2.7c0.9,1.5,3.2,2.8,5.3,2.8c2.1,0,3-1.2,2.2-2.7
				C280.1,509.2,277.7,508,275.7,508z"/>
			<path class="st59" d="M268.5,496.9c-2.1,0-3,1.2-2.2,2.7c0.9,1.5,3.2,2.8,5.3,2.8c2.1,0,3-1.2,2.2-2.7
				C272.9,498.2,270.5,496.9,268.5,496.9z"/>
			<path class="st59" d="M277.8,491.3c-2.1,0-3,1.2-2.2,2.7c0.9,1.5,3.2,2.8,5.3,2.8c2.1,0,3-1.2,2.2-2.7
				C282.2,492.6,279.8,491.3,277.8,491.3z"/>
			<path class="st59" d="M282.2,500.1c-2.1,0-3,1.2-2.2,2.7c0.9,1.5,3.2,2.8,5.3,2.8c2.1,0,3-1.2,2.2-2.7
				C286.6,501.4,284.3,500.1,282.2,500.1z"/>
		</g>
		<g>
			<path class="st60" d="M373.6,474.5c3.4-4.8,1.8-7.7-1.1-9.7c-2.9-2-6.1-2.4-9.5,2.3c-3.4,4.8-3.7,10.3-0.8,12.3
				C365.1,481.4,370.2,479.2,373.6,474.5z"/>
			<path class="st61" d="M360.6,458.7c0.1-5.8-2.9-7.4-6.4-7.4c-3.6,0-6.4,1.5-6.5,7.3c-0.1,5.8,2.8,10.6,6.3,10.6
				C357.6,469.2,360.6,464.5,360.6,458.7z"/>
			<path class="st60" d="M377.1,460.2c0.1-5.8-2.9-7.4-6.4-7.4c-3.6,0-6.4,1.5-6.5,7.3c-0.1,5.8,2.8,10.6,6.3,10.6
				C374.1,470.8,377,466.1,377.1,460.2z"/>
			<path class="st62" d="M388.7,465c0.7-5.8-2-7.6-5.5-8.1c-3.5-0.4-6.5,0.7-7.2,6.5c-0.7,5.8,1.6,10.8,5.1,11.3
				C384.6,475.1,388,470.8,388.7,465z"/>
			<path class="st61" d="M369,463.9c0.1-5.8-2.9-7.4-6.4-7.4c-3.6,0-6.4,1.5-6.5,7.3c-0.1,5.8,2.8,10.6,6.3,10.6
				C366,474.4,368.9,469.7,369,463.9z"/>
			<path class="st61" d="M382.4,469c0.1-5.8-2.9-7.4-6.4-7.4c-3.6,0-6.4,1.5-6.5,7.3c-0.1,5.8,2.8,10.6,6.3,10.6
				C379.4,479.5,382.4,474.8,382.4,469z"/>
			<path class="st60" d="M389.4,479.5c4.2-4,3.3-7.2,0.9-9.8c-2.4-2.6-5.5-3.6-9.7,0.4c-4.2,4-5.7,9.3-3.3,11.9
				C379.8,484.7,385.2,483.5,389.4,479.5z"/>
			<path class="st60" d="M360.7,468c3.6-4.6,2.2-7.6-0.6-9.8c-2.8-2.2-6-2.7-9.6,1.9c-3.6,4.6-4.2,10.1-1.4,12.3
				C352,474.6,357.1,472.6,360.7,468z"/>
			<path class="st61" d="M348.9,458.8c-1.3-5.7-4.5-6.5-8-5.7c-3.5,0.8-5.9,2.9-4.6,8.6c1.3,5.7,5.2,9.7,8.6,8.9
				C348.5,469.7,350.2,464.5,348.9,458.8z"/>
			<path class="st63" d="M323.1,519.9l10.8-56.4l58.8,16.2l-22.6,56.8C370.2,536.5,331.8,531.3,323.1,519.9z"/>
			<path class="st64" d="M354.4,497.4c0.3-10.1,2.8-19.3,6.6-26.4l-27.1-7.5l-10.8,56.4c7.4,9.7,36.4,14.9,44.8,16.2
				C359.4,528.9,353.8,514.2,354.4,497.4z"/>
			<polygon class="st65" points="391.9,482.8 393.8,478.1 333,461.8 332,466.7 			"/>
		</g>
		<polygon class="st66" points="516.1,537.2 499,622.4 526.1,622.4 533.2,611.8 		"/>
		<ellipse class="st55" cx="889.5" cy="535.4" rx="71.6" ry="1.6"/>
		<g>
			<path class="st3" d="M437.5,484.2h-44.5c-3.6,0-6.6,2.9-6.6,6.6v35.7c0,2.5,2.1,4.6,4.6,4.6h47c2.6,0,4.7-2.1,4.7-4.7v-37.1
				C442.7,486.5,440.3,484.2,437.5,484.2z"/>
			<path class="st4" d="M425.5,494.7h-17.7c-3.6,0-6.6,2.9-6.6,6.6v13.4c0,2.5,2.1,4.6,4.6,4.6H426c2.6,0,4.7-2.1,4.7-4.7v-14.7
				C430.7,497,428.4,494.7,425.5,494.7z"/>
		</g>
		<g>
			<polygon class="st56" points="516.4,622.4 392,622.4 428.5,526.4 510.7,532.6 516.1,537.2 			"/>
			<polygon class="st57" points="502.9,622.4 392,622.4 428.5,526.4 510.7,532.6 			"/>
			<g>
				<path class="st67" d="M470.6,560.1c-13.5-9.6-33.5-5.8-44.6,8.5c-11.2,14.3-9.3,33.6,4.2,43.2c13.5,9.6,33.5,5.8,44.6-8.5
					C485.9,589,484,569.7,470.6,560.1z M470.5,600.2c-9.8,12.3-27.1,15.7-38.7,7.5c-11.6-8.2-13-24.9-3.3-37.2
					c9.8-12.3,27.1-15.7,38.7-7.5C478.8,571.2,480.3,587.9,470.5,600.2z"/>
				<path class="st67" d="M464.3,565.8c-2.2-1.6-5.4-0.9-7.3,1.4c-1.8,2.3-1.5,5.5,0.7,7c2.2,1.6,5.4,0.9,7.3-1.4
					C466.8,570.5,466.5,567.4,464.3,565.8z"/>
				<path class="st67" d="M439.4,569.4c-2.2-1.6-5.4-0.9-7.3,1.4c-1.8,2.3-1.5,5.5,0.7,7c2.2,1.6,5.4,0.9,7.3-1.4
					C441.9,574.1,441.5,571,439.4,569.4z"/>
				<path class="st67" d="M439,598.6c-2.2-1.6-5.4-0.9-7.3,1.4c-1.8,2.3-1.5,5.5,0.7,7c2.2,1.6,5.4,0.9,7.3-1.4
					C441.5,603.3,441.2,600.1,439,598.6z"/>
				<path class="st67" d="M451,581c-2.2-1.6-5.4-0.9-7.3,1.4c-1.8,2.3-1.5,5.5,0.7,7c2.2,1.6,5.4,0.9,7.3-1.4
					C453.5,585.7,453.2,582.6,451,581z"/>
				<path class="st67" d="M471,581.9c-2.2-1.6-5.4-0.9-7.3,1.4c-1.8,2.3-1.5,5.5,0.7,7c2.2,1.6,5.4,0.9,7.3-1.4
					C473.5,586.6,473.2,583.4,471,581.9z"/>
				<path class="st67" d="M460.1,594.9c-2.2-1.6-5.4-0.9-7.3,1.4c-1.8,2.3-1.5,5.5,0.7,7c2.2,1.6,5.4,0.9,7.3-1.4
					C462.6,599.6,462.2,596.5,460.1,594.9z"/>
			</g>
			<g>
				<path class="st67" d="M443.3,534.1c0.5,0,1.8-0.1,2.7,0c2.7,0.2,4.4,0.3,5,1.4c0.4,0.6,0.8,1.3,0.5,2.5
					c-0.7,2.2-2.7,3.2-4.5,3.6c-1.1,0.2-2.3,0.3-3.5,0.2l-0.6,2l-0.8,2.6c-0.1,0.5-0.4,0.5-0.6,0.5c-0.2,0-0.3-0.1-0.4-0.1
					c-0.3,0-1.2,0-1.6,0c-0.3,0-0.3-0.3-0.2-0.6c0.1-0.3,1-3,1.2-3.9l1.5-5c0.1-0.3,0.3-1,0.6-1.6l0.4-1.2
					C443,534,443.1,534,443.3,534.1z M445.2,540.9c0.8,0,1.8,0,2.5-0.3c1-0.3,1.7-0.9,2.1-2.1c0.1-0.4,0.2-0.9,0.3-1.5
					c0.1-1.1-1-1.7-2.2-1.9c-0.4-0.1-0.8-0.1-1.3-0.2c-0.3,0-0.7,0-1.1,0l-1.9,5.9C444.2,540.9,444.7,540.9,445.2,540.9z"/>
				<path class="st67" d="M453.7,535.4c0.2-0.6,0.4-0.7,0.6-0.7c0,0,0.1,0,0.2,0c0.3,0,1,0,1.6,0.1c0.3,0.1,0.4,0.2,0.3,0.3
					c0,0.1-0.1,0.2-0.2,0.4c-0.2,0.4-0.7,1.4-1.2,3.2c-0.2,0.5-0.3,1-0.5,1.5c-0.4,1.3-0.7,2.5-0.8,2.8c-0.1,0.3-0.4,1.5-0.6,2.1
					c-0.1,0.2-0.1,0.3-0.1,0.4c0,0.1-0.1,0.2-0.1,0.4c-0.2,0.5-0.3,1.3-0.4,1.6c-0.1,0.3-0.4,0.3-0.7,0.3l-1.8-0.1
					c-0.5,0-0.4-0.3-0.3-0.6c0-0.3,0.4-0.9,0.6-1.5c0.2-0.7,1.4-3.8,1.5-4.3c0.1-0.5,1-3,1.1-3.5c0.1-0.2,0.2-0.6,0.3-1l0.2-0.7
					L453.7,535.4z"/>
				<path class="st67" d="M462,536.8c-0.3,0-0.8,0-1.2-0.1c-0.1,0-0.3,0-0.4,0c-0.2,0-0.8-0.1-1.4-0.1c-0.4,0-0.7-0.1-0.8-0.1
					c-0.3,0-0.2-0.1-0.1-0.3c0-0.1,0.1-0.4,0.2-0.7c0.1-0.4,0.4-0.2,0.7-0.2c0.6,0,1.7,0.1,2.5,0.1c0.8,0.1,2.9,0.3,3.3,0.3
					c0.2,0,0.7,0.1,1.2,0.1c0.8,0.1,1.7,0.1,2,0.1c0.1,0,0.1,0,0.1,0c0.3,0,0.2,0.2,0.2,0.3c0,0.1-0.2,0.7-0.5,0.9
					c-0.3,0.3-2.8,2.6-3.8,3.4c-0.5,0.5-2,1.7-3.3,2.9l-2.6,2.2c0.3,0.1,0.5,0.1,0.8,0.2c0.4,0.1,1,0.2,1.4,0.2
					c0.9,0.1,1.4,0.1,2.2,0.1c0.8,0.1,2.9,0.1,3.3,0.1c0.4,0,0.3,0.3,0.2,0.6c-0.1,0.3-0.3,1-0.4,1.3c0,0,0,0.1,0,0.1
					c-0.1,0.2-0.1,0.3-0.4,0.3c-0.3,0-0.6,0-1.5,0c-0.3,0-0.7,0-1.2-0.1c-0.9-0.1-2-0.2-2.5-0.2L455,548c-0.8-0.1-0.5-0.4-0.4-0.7
					c0.1-0.2,0.5-1.3,0.6-1.6c0.1-0.3,0.6-0.6,1.2-1c0.5-0.4,3.2-2.7,3.8-3.3c0.5-0.5,2.3-2,2.9-2.5c0.3-0.3,0.7-0.7,1.1-1.1
					l0.6-0.7c-0.1,0-0.1,0-0.2,0l-0.4-0.1L462,536.8z"/>
				<path class="st67" d="M476.4,537.5c-0.5,0-2.7-0.3-4.1-0.4c-0.6,0-1-0.1-1.2-0.1c-0.7,0-0.7-0.2-0.7-0.3c0-0.1,0.1-0.4,0.3-0.7
					c0.1-0.1,0.2-0.2,0.3-0.1c0.2,0,0.4,0.1,0.7,0.1l2,0.1c0.5,0,1.5,0.1,2.2,0.2c0.6,0,2.1,0.2,2.7,0.3c0.4,0.1,1.1,0.2,1.6,0.2
					c0.2,0,0.3,0,0.4,0c0.1,0,0.1,0,0.1,0c0.3,0,0.1,0.2,0.1,0.3c0,0.1-0.1,0.3-0.3,0.7c-0.2,0.4-0.8,0.7-1.5,1.3
					c-0.7,0.5-2.2,2-2.8,2.6c-0.6,0.6-2.6,2.2-3,2.6c-0.4,0.4-1.7,1.4-2.2,1.8c-0.3,0.2-0.7,0.7-1.1,1.1l-0.7,0.7
					c0.9,0.1,1.8,0.2,2.5,0.2c1.3,0.1,2.6,0.2,2.8,0.2c0.3,0,1.4,0.2,1.7,0.2l1.3,0.1c0,0,0,0,0,0c0.2,0,0.1,0.1,0.1,0.2
					c0,0.1-0.1,0.4-0.2,0.6c0,0.2-0.1,0.2-0.3,0.2c-0.1,0-0.2,0-0.3-0.1c-0.4-0.1-0.8-0.1-1.3-0.2c-0.5,0-3.9-0.2-4.7-0.3
					c-0.7-0.1-3-0.2-3.5-0.2c0,0-0.1,0-0.1,0c-0.3,0-0.2-0.2-0.2-0.3c0-0.1,0.2-0.4,0.6-0.7c0.3-0.3,3.3-2.8,3.9-3.3
					c0.7-0.5,3.3-2.7,4.6-3.8c0.7-0.5,1.5-1.3,2.1-1.9l1.1-1.1l-1.2-0.1C477.5,537.6,476.7,537.6,476.4,537.5z"/>
				<path class="st67" d="M479.1,547.6c0.1-0.3,0.5-0.8,0.8-1.3c0.3-0.5,1-1.5,1.3-2.1c0.3-0.6,0.8-1.3,1-1.7
					c0.2-0.4,0.8-1.3,1.1-1.8c0.3-0.5,0.6-1,0.8-1.2c0.2-0.3,0.9-1.3,1.1-1.7c0.3-0.5,0.6-0.9,1-0.8c0.2,0,0.2,0.4,0.3,1
					c0.1,0.5,0,2,0.1,2.3c0,0.3,0.2,2.5,0.2,2.9c0,0.4,0.2,2.2,0.3,2.7c0,0.5,0.1,1.8,0.1,2.4c0,0.6,0.2,1.8,0.2,2.1
					c0,0.1,0,0.2,0,0.2c0,0.1-0.1,0.1-0.2,0.1l-1.1-0.1c-0.1,0-0.2,0-0.2-0.2c0-0.2,0-0.5,0-0.7c0-0.4,0-0.7,0-0.8c0-0.3,0-1,0-1.3
					c0-0.2-0.1-0.5-0.1-0.8l0-0.5c-0.1-0.3-0.1-0.3-0.2-0.3c-0.2,0-0.4,0-0.6,0c-0.3,0-0.7,0-0.9,0c-0.2,0-0.8,0-1.5-0.1l-1.2-0.1
					c0,0,0,0,0,0c-0.1,0-0.2,0-0.2,0.2l-0.1,0.2l-0.2,0.3c-0.2,0.3-0.9,1.7-1,1.8c-0.1,0.1-0.2,0.5-0.4,0.6
					c-0.1,0.1-0.2,0.3-0.4,0.6c-0.1,0.1-0.2,0.3-0.3,0.5c-0.1,0.1-0.1,0.2-0.3,0.1l-0.4,0c-0.1,0-0.1-0.1,0-0.2c0,0,0-0.1,0-0.1
					c0-0.1,0.1-0.1,0.2-0.2l0.4-0.7C478.7,548.3,479,548,479.1,547.6z M485.6,544.4c0-0.1,0-0.2,0-0.4c-0.1-0.3,0-1.6-0.1-2.1
					c0-0.6-0.1-2,0-2.3c0-0.3,0-1-0.1-1c-0.1,0-0.3,0.5-0.6,0.9c-0.2,0.4-1.2,2-1.5,2.4c-0.2,0.4-1,1.8-1.3,2.1
					c0,0.1-0.1,0.1-0.1,0.1c-0.1,0.2,0.3,0.2,0.5,0.2c0.2,0,0.9,0,1.2,0.1c0.1,0,0.4,0,0.7,0c0.4,0,0.8,0.1,1.1,0.1
					C485.5,544.5,485.5,544.5,485.6,544.4z"/>
			</g>
		</g>
		<path class="st68" d="M1032.2,621.5H154.3c0,0,207.5,17.4,438.2,17.4S1032.2,621.5,1032.2,621.5z"/>
	</g>
</g>
</svg>
